HIERARCHY
ROOT Hips
{
	OFFSET 0.000000 0.000000 0.000000
	CHANNELS 6 Xposition Yposition Zposition Xrotation Yrotation Zrotation
	JOINT Spine
	{
		OFFSET 0.000000 0.049001 0.073502
		CHANNELS 3 Xrotation Yrotation Zrotation
		JOINT Spine1
		{
			OFFSET 0.000000 0.017018 0.096514
			CHANNELS 3 Xrotation Yrotation Zrotation
			JOINT Spine2
			{
				OFFSET 0.000000 0.008542 0.097630
				CHANNELS 3 Xrotation Yrotation Zrotation
				JOINT Spine3
				{
					OFFSET 0.000000 0.000000 0.098003
					CHANNELS 3 Xrotation Yrotation Zrotation
					JOINT Neck
					{
						OFFSET 0.000000 -0.036751 0.257258
						CHANNELS 3 Xrotation Yrotation Zrotation
						JOINT Head
						{
							OFFSET 0.000000 -0.023400 0.132707
							CHANNELS 3 Xrotation Yrotation Zrotation
							End Site
							{
								OFFSET 0.000000 0.000000 0.000000
							}
						}
					}
					JOINT RightShoulder
					{
						OFFSET -0.030410 -0.050683 0.164214
						CHANNELS 3 Xrotation Yrotation Zrotation
						JOINT RightArm
						{
							OFFSET -0.151036 -0.000000 0.000000
							CHANNELS 3 Xrotation Yrotation Zrotation
							JOINT RightForeArm
							{
								OFFSET -0.279942 -0.000000 0.000000
								CHANNELS 3 Xrotation Yrotation Zrotation
								JOINT RightHand
								{
									OFFSET -0.265034 -0.000000 0.000000
									CHANNELS 3 Xrotation Yrotation Zrotation
									JOINT RightHandEnd
									{
										OFFSET -0.071866 -0.000000 0.000000
										CHANNELS 3 Xrotation Yrotation Zrotation
										End Site
										{
											OFFSET 0.000000 0.000000 0.000000
										}
									}
									JOINT RightHandThumb1
									{
										OFFSET -0.028746 -0.047911 -0.019164
										CHANNELS 3 Xrotation Yrotation Zrotation
										End Site
										{
											OFFSET 0.000000 0.000000 0.000000
										}
									}
								}
							}
						}
					}
					JOINT LeftShoulder
					{
						OFFSET 0.030410 -0.050683 0.164214
						CHANNELS 3 Xrotation Yrotation Zrotation
						JOINT LeftArm
						{
							OFFSET 0.151036 0.000000 0.000000
							CHANNELS 3 Xrotation Yrotation Zrotation
							JOINT LeftForeArm
							{
								OFFSET 0.279942 0.000000 0.000000
								CHANNELS 3 Xrotation Yrotation Zrotation
								JOINT LeftHand
								{
									OFFSET 0.265034 0.000000 0.000000
									CHANNELS 3 Xrotation Yrotation Zrotation
									JOINT LeftHandEnd
									{
										OFFSET 0.071866 0.000000 0.000000
										CHANNELS 3 Xrotation Yrotation Zrotation
										End Site
										{
											OFFSET 0.000000 0.000000 0.000000
										}
									}
									JOINT LeftHandThumb1
									{
										OFFSET 0.028746 -0.047911 -0.019164
										CHANNELS 3 Xrotation Yrotation Zrotation
										End Site
										{
											OFFSET 0.000000 0.000000 0.000000
										}
									}
								}
							}
						}
					}
				}
			}
		}
	}
	JOINT RightUpLeg
	{
		OFFSET -0.090216 0.000000 -0.026355
		CHANNELS 3 Xrotation Yrotation Zrotation
		JOINT RightLeg
		{
			OFFSET 0.000000 0.000000 -0.402871
			CHANNELS 3 Xrotation Yrotation Zrotation
			JOINT RightFoot
			{
				OFFSET 0.000000 0.000000 -0.414145
				CHANNELS 3 Xrotation Yrotation Zrotation
				JOINT RightToeBase
				{
					OFFSET 0.000000 -0.146359 -0.053270
					CHANNELS 3 Xrotation Yrotation Zrotation
					End Site
					{
						OFFSET 0.000000 0.000000 0.000000
					}
				}
			}
		}
	}
	JOINT LeftUpLeg
	{
		OFFSET 0.090216 0.000000 -0.026355
		CHANNELS 3 Xrotation Yrotation Zrotation
		JOINT LeftLeg
		{
			OFFSET 0.000000 0.000000 -0.402871
			CHANNELS 3 Xrotation Yrotation Zrotation
			JOINT LeftFoot
			{
				OFFSET 0.000000 0.000000 -0.414145
				CHANNELS 3 Xrotation Yrotation Zrotation
				JOINT LeftToeBase
				{
					OFFSET 0.000000 -0.146359 -0.053270
					CHANNELS 3 Xrotation Yrotation Zrotation
					End Site
					{
						OFFSET 0.000000 0.000000 0.000000
					}
				}
			}
		}
	}
}
MOTION
Frames: 6
Frame Time: 0.033333
0.069769 -0.267462 0.912117 -1.680600 -0.012800 -176.712000 -0.980900 0.487200 0.099400 -1.180600 -0.065100 -0.072000 6.512100 -2.975600 -1.466100 2.734400 -1.207900 1.392200 4.353500 -5.050600 -4.418800 0.196500 -0.189000 -1.895200 13.323100 -5.523200 9.167100 29.802600 -47.752800 42.352200 0.000000 0.000000 71.528000 -21.828800 22.227400 6.799800 0.000000 0.000000 0.000000 0.000000 0.000000 0.000000 12.234100 -1.230600 -8.796300 26.190700 44.537500 -50.423700 0.000000 0.000000 -103.199900 -6.192400 -6.937700 3.028300 0.000000 0.000000 0.000000 0.000000 0.000000 0.000000 -5.437800 1.369500 -41.386100 6.782400 0.000000 0.000000 -5.059900 2.655200 -1.117100 2.682800 0.000000 0.000000 -7.131200 -2.532500 27.840200 7.863300 0.000000 0.000000 -1.440700 2.144300 -1.577300 0.046600 0.000000 0.000000 
0.060830 -0.262341 0.912637 -0.940600 0.312000 -176.125800 -0.905400 1.354000 -0.117600 -1.199900 0.420200 -0.023900 6.621800 -2.710800 -1.790300 2.801100 -1.114800 1.210200 4.958900 -5.437800 -4.705200 0.498100 -0.903900 -2.120800 13.008300 -6.712500 8.802600 31.271100 -47.887100 43.689900 0.000000 0.000000 71.207200 -21.128500 21.777200 6.767400 0.000000 0.000000 0.000000 0.000000 0.000000 0.000000 11.853800 -0.762900 -8.892300 26.272400 42.923900 -50.739100 0.000000 0.000000 -102.219800 -4.100800 -6.710200 3.269400 0.000000 0.000000 0.000000 0.000000 0.000000 0.000000 -4.341400 2.381200 -41.808300 7.144700 0.000000 0.000000 -5.276900 2.141800 -1.390700 2.894500 0.000000 0.000000 -5.020600 -1.534000 29.592300 5.898000 0.000000 0.000000 -0.724500 3.289300 -3.720700 -0.916300 0.000000 0.000000 
0.050587 -0.257846 0.913219 -0.505000 0.714500 -175.316400 -0.959200 1.731000 -0.306400 -1.161400 0.713100 0.009000 6.515600 -1.995800 -1.955300 2.819800 -0.808600 0.814300 5.623300 -5.292100 -4.800500 0.772800 -1.572500 -2.571500 12.846200 -6.108100 8.227500 33.663400 -50.400000 46.364300 0.000000 0.000000 70.418000 -19.204100 21.286800 6.415000 0.000000 0.000000 0.000000 0.000000 0.000000 0.000000 11.807400 -0.719400 -8.372700 26.931100 41.564600 -51.974200 0.000000 0.000000 -101.423700 -1.266100 -6.000700 3.531600 0.000000 0.000000 0.000000 0.000000 0.000000 0.000000 -3.649600 3.582400 -41.712300 7.689100 0.000000 0.000000 -5.412000 1.706800 -2.397300 2.900200 0.000000 0.000000 -3.793300 -0.333900 29.269700 5.047800 0.000000 0.000000 -0.292900 3.970100 -4.707900 -2.123700 0.000000 0.000000 
0.039304 -0.253977 0.912701 -0.094900 0.869100 -174.657800 -0.927900 1.677800 -0.399600 -1.070200 0.679200 0.009100 6.309000 -1.275000 -1.792600 2.823500 -0.455500 0.423000 6.062100 -4.488900 -4.748900 1.087600 -1.895500 -3.260500 13.208500 -3.985300 7.636800 36.066400 -54.353500 49.128200 0.000000 0.000000 70.370100 -17.513000 20.917500 5.963200 0.000000 0.000000 0.000000 0.000000 0.000000 0.000000 11.879800 -0.494200 -7.530900 27.832700 40.555800 -53.524600 0.000000 0.000000 -101.092600 1.442900 -5.007200 3.745000 0.000000 0.000000 0.000000 0.000000 0.000000 0.000000 -3.397400 4.740500 -40.276000 8.916700 0.000000 0.000000 -5.629900 1.435000 -4.566800 3.075900 0.000000 0.000000 -3.298200 0.555000 28.351000 5.494900 0.000000 0.000000 -1.153500 3.093900 -4.465400 -1.918600 0.000000 0.000000 
0.026838 -0.250932 0.911525 0.526300 1.121900 -174.442000 -0.609800 1.603400 -0.434500 -0.915800 0.545500 0.014000 6.182400 -0.680700 -1.291800 2.819300 -0.189800 0.201300 6.154500 -3.436700 -4.671600 1.355100 -1.902600 -3.996000 13.905600 -2.178900 7.223700 36.838700 -57.255100 49.739500 0.000000 0.000000 71.523700 -17.454200 20.809000 5.757300 0.000000 0.000000 0.000000 0.000000 0.000000 0.000000 11.906300 0.347300 -6.754900 28.689000 40.103200 -54.599800 0.000000 0.000000 -101.191000 2.822400 -4.251200 3.829700 0.000000 0.000000 0.000000 0.000000 0.000000 0.000000 -3.791100 6.262200 -36.006400 11.603100 0.000000 0.000000 -6.268000 1.498400 -8.849200 3.342800 0.000000 0.000000 -2.924600 1.380900 27.363600 6.615800 0.000000 0.000000 -2.527900 2.324600 -3.338500 -1.632600 0.000000 0.000000 
0.013835 -0.249329 0.910478 1.108600 1.545100 -174.999300 -0.206100 1.638100 -0.428300 -0.781800 0.507900 0.039900 6.196800 -0.173000 -0.575500 2.800500 -0.017700 0.131900 6.064700 -2.577700 -4.480700 1.411000 -1.796400 -4.430000 14.368800 -1.686300 7.129700 35.422700 -57.821000 47.658700 0.000000 0.000000 72.836300 -18.471300 20.793300 5.846700 0.000000 0.000000 0.000000 0.000000 0.000000 0.000000 12.061800 1.399700 -5.978000 29.614100 40.894100 -55.105500 0.000000 0.000000 -101.348700 2.385800 -4.139900 3.782400 0.000000 0.000000 0.000000 0.000000 0.000000 0.000000 -5.762900 8.055800 -28.287800 16.550200 0.000000 0.000000 -6.946200 1.643200 -15.252200 2.374500 0.000000 0.000000 -2.417100 2.413200 26.721800 7.382500 0.000000 0.000000 -3.356200 2.250300 -2.276700 -2.269900 0.000000 0.000000 
